STARTFONT 2.1
FONT -DEC-MiriamFixed-Medium-R-Normal--34-240-100-100-M-200-ISO8859-8
SIZE 24 100 100
FONTBOUNDINGBOX 20 29 0 -6

STARTPROPERTIES 26
FONTNAME_REGISTRY ""
FAMILY_NAME "MiriamFixed"
FOUNDRY "DEC"
WEIGHT_NAME "Medium"
SLANT "R"
SETWIDTH_NAME "Normal"
ADD_STYLE_NAME ""
PIXEL_SIZE 34
RESOLUTION_X 100
RESOLUTION_Y 100
SPACING "M"
AVERAGE_WIDTH 200
CHARSET_REGISTRY "ISO8859"
CHARSET_ENCODING "8"
CHARSET_COLLECTIONS "ASCII ISO8859-8 "
FULL_NAME "MiriamFixed"
COPYRIGHT "Digital Israel"
CAP_HEIGHT 19
X_HEIGHT 14
_DEC_DEVICE_FONTNAMES "PS=MiriamFixed-ISOLatinHebrew"
QUAD_WIDTH 20
POINT_SIZE 240
WEIGHT 10
DEFAULT_CHAR 0
FONT_DESCENT 6
FONT_ASCENT 23
ENDPROPERTIES

CHARS 152

STARTCHAR space
ENCODING 32
SWIDTH 600 0
DWIDTH 20 0
BBX 20 29 0 -6
BITMAP
000000
000000
000000
000000
000000
000000
000000
000000
000000
000000
000000
000000
000000
000000
000000
000000
000000
000000
000000
000000
000000
000000
000000
000000
000000
000000
000000
000000
000000
ENDCHAR

STARTCHAR exclam
ENCODING 33
SWIDTH 600 0
DWIDTH 20 0
BBX 20 29 0 -6
BITMAP
000000
000000
002000
007000
007000
007000
007000
007000
002000
002000
002000
002000
002000
002000
002000
002000
000000
000000
000000
000000
007000
00F800
007000
000000
000000
000000
000000
000000
000000
ENDCHAR

STARTCHAR quotedbl
ENCODING 34
SWIDTH 600 0
DWIDTH 20 0
BBX 20 29 0 -6
BITMAP
000000
000000
000000
0F1E00
0F1E00
0F1E00
0F1E00
0F1E00
060C00
060C00
040800
040800
040800
000000
000000
000000
000000
000000
000000
000000
000000
000000
000000
000000
000000
000000
000000
000000
000000
ENDCHAR

STARTCHAR numbersign
ENCODING 35
SWIDTH 600 0
DWIDTH 20 0
BBX 20 29 0 -6
BITMAP
000000
000000
008800
008800
008800
008800
019800
011000
011000
011000
0FFF00
011000
011000
011000
011000
011000
1FFE00
011000
011000
011000
013000
022000
022000
022000
022000
000000
000000
000000
000000
ENDCHAR

STARTCHAR dollar
ENCODING 36
SWIDTH 600 0
DWIDTH 20 0
BBX 20 29 0 -6
BITMAP
000000
004000
004000
004000
01F200
071E00
040600
080200
080000
0C0000
060000
03C000
007800
000E00
000300
000100
000100
080300
0C0600
0F1C00
09F000
004000
004000
004000
004000
004000
000000
000000
000000
ENDCHAR

STARTCHAR percent
ENCODING 37
SWIDTH 600 0
DWIDTH 20 0
BBX 20 29 0 -6
BITMAP
000000
000000
000000
03C000
066000
0C3000
081000
081000
0C3000
066000
03C1C0
000E00
007000
038000
1C0000
003C00
006600
00C300
008100
008100
00C300
006600
003C00
000000
000000
000000
000000
000000
000000
ENDCHAR

STARTCHAR ampersand
ENCODING 38
SWIDTH 600 0
DWIDTH 20 0
BBX 20 29 0 -6
BITMAP
000000
000000
000000
000000
000000
000000
01F800
033000
060000
040000
040000
060000
020000
030000
078000
0C8600
08CC00
184800
106800
183800
083000
0C7800
07CE00
000000
000000
000000
000000
000000
000000
ENDCHAR

STARTCHAR quoteright
ENCODING 39
SWIDTH 600 0
DWIDTH 20 0
BBX 20 29 0 -6
BITMAP
000000
000000
00F000
00F000
01E000
01C000
01C000
038000
030000
030000
020000
000000
000000
000000
000000
000000
000000
000000
000000
000000
000000
000000
000000
000000
000000
000000
000000
000000
000000
ENDCHAR

STARTCHAR parenleft
ENCODING 40
SWIDTH 600 0
DWIDTH 20 0
BBX 20 29 0 -6
BITMAP
000000
000000
000400
000C00
000800
001800
001000
003000
003000
002000
002000
006000
006000
006000
006000
006000
006000
006000
002000
002000
003000
003000
001000
001800
000800
000C00
000400
000000
000000
ENDCHAR

STARTCHAR parenright
ENCODING 41
SWIDTH 600 0
DWIDTH 20 0
BBX 20 29 0 -6
BITMAP
000000
000000
040000
060000
020000
030000
010000
018000
018000
008000
008000
00C000
00C000
00C000
00C000
00C000
00C000
00C000
008000
008000
018000
018000
010000
030000
020000
060000
040000
000000
000000
ENDCHAR

STARTCHAR asterisk
ENCODING 42
SWIDTH 600 0
DWIDTH 20 0
BBX 20 29 0 -6
BITMAP
000000
000000
004000
004000
004000
004000
084200
0F5E00
01F000
00E000
00A000
01B000
031800
020800
060C00
000000
000000
000000
000000
000000
000000
000000
000000
000000
000000
000000
000000
000000
000000
ENDCHAR

STARTCHAR plus
ENCODING 43
SWIDTH 600 0
DWIDTH 20 0
BBX 20 29 0 -6
BITMAP
000000
000000
000000
000000
000000
004000
004000
004000
004000
004000
004000
004000
004000
3FFF80
004000
004000
004000
004000
004000
004000
004000
004000
000000
000000
000000
000000
000000
000000
000000
ENDCHAR

STARTCHAR comma
ENCODING 44
SWIDTH 600 0
DWIDTH 20 0
BBX 20 29 0 -6
BITMAP
000000
000000
000000
000000
000000
000000
000000
000000
000000
000000
000000
000000
000000
000000
000000
000000
000000
000000
01E000
01E000
03C000
03C000
030000
070000
060000
060000
040000
000000
000000
ENDCHAR

STARTCHAR minus
ENCODING 45
SWIDTH 600 0
DWIDTH 20 0
BBX 20 29 0 -6
BITMAP
000000
000000
000000
000000
000000
000000
000000
000000
000000
000000
000000
000000
000000
3FFF80
000000
000000
000000
000000
000000
000000
000000
000000
000000
000000
000000
000000
000000
000000
000000
ENDCHAR

STARTCHAR period
ENCODING 46
SWIDTH 600 0
DWIDTH 20 0
BBX 20 29 0 -6
BITMAP
000000
000000
000000
000000
000000
000000
000000
000000
000000
000000
000000
000000
000000
000000
000000
000000
000000
000000
000000
00E000
01F000
01F000
00E000
000000
000000
000000
000000
000000
000000
ENDCHAR

STARTCHAR slash
ENCODING 47
SWIDTH 600 0
DWIDTH 20 0
BBX 20 29 0 -6
BITMAP
000000
000200
000600
000400
000400
000C00
000800
001800
001000
003000
002000
002000
006000
004000
00C000
008000
008000
018000
010000
030000
020000
060000
040000
040000
0C0000
080000
000000
000000
000000
ENDCHAR

STARTCHAR zero
ENCODING 48
SWIDTH 600 0
DWIDTH 20 0
BBX 20 29 0 -6
BITMAP
000000
000000
000000
01F000
031800
060C00
040400
040400
080200
080200
080200
080200
080200
080200
080200
080200
080200
0C0600
040400
040400
060C00
031800
01F000
000000
000000
000000
000000
000000
000000
ENDCHAR

STARTCHAR one
ENCODING 49
SWIDTH 600 0
DWIDTH 20 0
BBX 20 29 0 -6
BITMAP
000000
000000
000000
00C000
03C000
0E4000
004000
004000
004000
004000
004000
004000
004000
004000
004000
004000
004000
004000
004000
004000
004000
004000
0FFE00
000000
000000
000000
000000
000000
000000
ENDCHAR

STARTCHAR two
ENCODING 50
SWIDTH 600 0
DWIDTH 20 0
BBX 20 29 0 -6
BITMAP
000000
000000
000000
01F800
060C00
0C0200
080200
080200
000200
000600
000400
000C00
001800
003000
006000
00C000
018000
030000
060000
0C0000
180000
100100
1FFF00
000000
000000
000000
000000
000000
000000
ENDCHAR

STARTCHAR three
ENCODING 51
SWIDTH 600 0
DWIDTH 20 0
BBX 20 29 0 -6
BITMAP
000000
000000
000000
01F000
071C00
0C0600
000200
000200
000200
000200
000400
000800
00F000
000C00
000200
000100
000100
000100
000100
000300
180600
0E1C00
03F000
000000
000000
000000
000000
000000
000000
ENDCHAR

STARTCHAR four
ENCODING 52
SWIDTH 600 0
DWIDTH 20 0
BBX 20 29 0 -6
BITMAP
000000
000000
000000
001800
002800
002800
004800
00C800
008800
010800
030800
020800
040800
0C0800
080800
100800
1FFF00
000800
000800
000800
000800
000800
007F00
000000
000000
000000
000000
000000
000000
ENDCHAR

STARTCHAR five
ENCODING 53
SWIDTH 600 0
DWIDTH 20 0
BBX 20 29 0 -6
BITMAP
000000
000000
000000
07FE00
040000
040000
040000
040000
040000
040000
04F000
079C00
040600
000200
000300
000100
000100
000100
000300
180200
0C0600
071C00
01F000
000000
000000
000000
000000
000000
000000
ENDCHAR

STARTCHAR six
ENCODING 54
SWIDTH 600 0
DWIDTH 20 0
BBX 20 29 0 -6
BITMAP
000000
000000
000000
007C00
01C200
030000
020000
060000
040000
0C0000
08F800
0B8E00
0A0200
0C0300
0C0100
0C0100
0C0100
0C0100
040100
060300
020200
038E00
00F800
000000
000000
000000
000000
000000
000000
ENDCHAR

STARTCHAR seven
ENCODING 55
SWIDTH 600 0
DWIDTH 20 0
BBX 20 29 0 -6
BITMAP
000000
000000
000000
0FFE00
080200
080200
000600
000400
000400
000C00
000800
000800
001800
001000
001000
003000
002000
002000
002000
006000
004000
004000
004000
000000
000000
000000
000000
000000
000000
ENDCHAR

STARTCHAR eight
ENCODING 56
SWIDTH 600 0
DWIDTH 20 0
BBX 20 29 0 -6
BITMAP
000000
000000
000000
01F000
060C00
040400
0C0600
080200
080200
0C0600
040400
031800
01F000
071C00
040400
0C0600
080200
080200
080200
0C0600
040400
071C00
01F000
000000
000000
000000
000000
000000
000000
ENDCHAR

STARTCHAR nine
ENCODING 57
SWIDTH 600 0
DWIDTH 20 0
BBX 20 29 0 -6
BITMAP
000000
000000
000000
01F000
070C00
040600
0C0200
080300
080300
080300
080300
0C0500
040D00
073900
01E100
000200
000200
000200
000400
000C00
001800
00E000
078000
000000
000000
000000
000000
000000
000000
ENDCHAR

STARTCHAR colon
ENCODING 58
SWIDTH 600 0
DWIDTH 20 0
BBX 20 29 0 -6
BITMAP
000000
000000
000000
000000
000000
000000
000000
000000
000000
00E000
01F000
01F000
00E000
000000
000000
000000
000000
000000
000000
00E000
01F000
01F000
00E000
000000
000000
000000
000000
000000
000000
ENDCHAR

STARTCHAR semicolon
ENCODING 59
SWIDTH 600 0
DWIDTH 20 0
BBX 20 29 0 -6
BITMAP
000000
000000
000000
000000
000000
000000
000000
000000
000000
00E000
01F000
01F000
00E000
000000
000000
000000
000000
000000
01E000
01E000
03C000
038000
038000
070000
060000
060000
040000
000000
000000
ENDCHAR

STARTCHAR less
ENCODING 60
SWIDTH 600 0
DWIDTH 20 0
BBX 20 29 0 -6
BITMAP
000000
000000
000000
000000
000000
000080
000380
000E00
003800
00E000
018000
070000
1C0000
300000
1C0000
070000
018000
00E000
003800
000E00
000380
000080
000000
000000
000000
000000
000000
000000
000000
ENDCHAR

STARTCHAR equal
ENCODING 61
SWIDTH 600 0
DWIDTH 20 0
BBX 20 29 0 -6
BITMAP
000000
000000
000000
000000
000000
000000
000000
000000
000000
000000
000000
3FFF80
000000
000000
000000
000000
3FFF80
000000
000000
000000
000000
000000
000000
000000
000000
000000
000000
000000
000000
ENDCHAR

STARTCHAR greater
ENCODING 62
SWIDTH 600 0
DWIDTH 20 0
BBX 20 29 0 -6
BITMAP
000000
000000
000000
000000
000000
200000
380000
0E0000
038000
00E000
003000
001C00
000700
000180
000700
001C00
003000
00E000
038000
0E0000
380000
200000
000000
000000
000000
000000
000000
000000
000000
ENDCHAR

STARTCHAR question
ENCODING 63
SWIDTH 600 0
DWIDTH 20 0
BBX 20 29 0 -6
BITMAP
000000
000000
000000
000000
03F000
0E1C00
080400
080400
000600
000200
000600
000400
001C00
007000
004000
004000
004000
000000
000000
000000
00E000
01F000
00E000
000000
000000
000000
000000
000000
000000
ENDCHAR

STARTCHAR at
ENCODING 64
SWIDTH 600 0
DWIDTH 20 0
BBX 20 29 0 -6
BITMAP
000000
000000
01F000
031800
060800
0C0C00
080400
180400
100400
101C00
107400
10C400
108400
108400
108400
10C400
106400
103E00
100000
180000
080000
0C0000
060000
031C00
01F000
000000
000000
000000
000000
ENDCHAR

STARTCHAR A
ENCODING 65
SWIDTH 600 0
DWIDTH 20 0
BBX 20 29 0 -6
BITMAP
000000
000000
000000
000000
1FE000
00A000
00A000
011000
011000
011000
020800
020800
020800
040400
040400
040400
0FFE00
080200
080200
100100
100100
300180
FE0FE0
000000
000000
000000
000000
000000
000000
ENDCHAR

STARTCHAR B
ENCODING 66
SWIDTH 600 0
DWIDTH 20 0
BBX 20 29 0 -6
BITMAP
000000
000000
000000
000000
7FF800
080600
080200
080300
080100
080100
080300
080200
080600
0FFC00
080300
080100
080180
080080
080080
080180
080100
080300
7FFC00
000000
000000
000000
000000
000000
000000
ENDCHAR

STARTCHAR C
ENCODING 67
SWIDTH 600 0
DWIDTH 20 0
BBX 20 29 0 -6
BITMAP
000000
000000
000000
000000
01F100
071D00
080300
180100
100100
300100
200000
200000
200000
200000
200000
200000
200000
300000
100000
180100
080700
071C00
01F000
000000
000000
000000
000000
000000
000000
ENDCHAR

STARTCHAR D
ENCODING 68
SWIDTH 600 0
DWIDTH 20 0
BBX 20 29 0 -6
BITMAP
000000
000000
000000
000000
7FE000
103800
100C00
100600
100200
100300
100100
100100
100100
100100
100100
100100
100100
100300
100200
100600
100C00
103800
7FE000
000000
000000
000000
000000
000000
000000
ENDCHAR

STARTCHAR E
ENCODING 69
SWIDTH 600 0
DWIDTH 20 0
BBX 20 29 0 -6
BITMAP
000000
000000
000000
000000
7FFE00
080200
080200
080200
080200
082200
082000
082000
0FE000
082000
082000
082000
080000
080100
080100
080100
080100
080100
7FFF00
000000
000000
000000
000000
000000
000000
ENDCHAR

STARTCHAR F
ENCODING 70
SWIDTH 600 0
DWIDTH 20 0
BBX 20 29 0 -6
BITMAP
000000
000000
000000
000000
7FFF00
080100
080100
080100
080100
082100
082000
082000
0FE000
082000
082000
082000
080000
080000
080000
080000
080000
080000
7FC000
000000
000000
000000
000000
000000
000000
ENDCHAR

STARTCHAR G
ENCODING 71
SWIDTH 600 0
DWIDTH 20 0
BBX 20 29 0 -6
BITMAP
000000
000000
000000
000000
01F100
071D00
0C0300
180100
100100
300100
200000
200000
200000
200000
200000
203F80
200100
300100
100100
180100
0C0100
070700
01FC00
000000
000000
000000
000000
000000
000000
ENDCHAR

STARTCHAR H
ENCODING 72
SWIDTH 600 0
DWIDTH 20 0
BBX 20 29 0 -6
BITMAP
000000
000000
000000
000000
3F1F80
080200
080200
080200
080200
080200
080200
080200
080200
0FFE00
080200
080200
080200
080200
080200
080200
080200
080200
3F1F80
000000
000000
000000
000000
000000
000000
ENDCHAR

STARTCHAR I
ENCODING 73
SWIDTH 600 0
DWIDTH 20 0
BBX 20 29 0 -6
BITMAP
000000
000000
000000
000000
0FFE00
004000
004000
004000
004000
004000
004000
004000
004000
004000
004000
004000
004000
004000
004000
004000
004000
004000
0FFE00
000000
000000
000000
000000
000000
000000
ENDCHAR

STARTCHAR J
ENCODING 74
SWIDTH 600 0
DWIDTH 20 0
BBX 20 29 0 -6
BITMAP
000000
000000
000000
000000
01FFC0
000400
000400
000400
000400
000400
000400
000400
000400
000400
000400
100400
100400
100400
100400
180C00
080800
0C3800
03E000
000000
000000
000000
000000
000000
000000
ENDCHAR

STARTCHAR K
ENCODING 75
SWIDTH 600 0
DWIDTH 20 0
BBX 20 29 0 -6
BITMAP
000000
000000
000000
000000
7F0FC0
080200
080600
080400
080800
081800
082000
086000
09C000
0E6000
081000
081800
080800
080C00
080400
080400
080600
080200
7F03C0
000000
000000
000000
000000
000000
000000
ENDCHAR

STARTCHAR L
ENCODING 76
SWIDTH 600 0
DWIDTH 20 0
BBX 20 29 0 -6
BITMAP
000000
000000
000000
000000
3FE000
020000
020000
020000
020000
020000
020000
020000
020000
020000
020000
020000
020080
020080
020080
020080
020080
020080
3FFF80
000000
000000
000000
000000
000000
000000
ENDCHAR

STARTCHAR M
ENCODING 77
SWIDTH 600 0
DWIDTH 20 0
BBX 20 29 0 -6
BITMAP
000000
000000
000000
000000
F803E0
280280
280280
240480
240480
220880
220880
211080
211080
211080
20A080
20A080
204080
204080
200080
200080
200080
200080
FE07E0
000000
000000
000000
000000
000000
000000
ENDCHAR

STARTCHAR N
ENCODING 78
SWIDTH 600 0
DWIDTH 20 0
BBX 20 29 0 -6
BITMAP
000000
000000
000000
000000
F81FC0
1C0100
140100
120100
120100
110100
108100
108100
104100
104100
102100
102100
101100
101100
100900
100900
100500
100700
7F0300
000000
000000
000000
000000
000000
000000
ENDCHAR

STARTCHAR O
ENCODING 79
SWIDTH 600 0
DWIDTH 20 0
BBX 20 29 0 -6
BITMAP
000000
000000
000000
000000
01F000
060C00
0C0600
180300
100100
300180
200080
200080
200080
200080
200080
200080
200080
300180
100100
180300
0C0600
060C00
01F000
000000
000000
000000
000000
000000
000000
ENDCHAR

STARTCHAR P
ENCODING 80
SWIDTH 600 0
DWIDTH 20 0
BBX 20 29 0 -6
BITMAP
000000
000000
000000
000000
7FF000
081C00
080200
080300
080100
080100
080100
080300
080200
081C00
0FF000
080000
080000
080000
080000
080000
080000
080000
7FE000
000000
000000
000000
000000
000000
000000
ENDCHAR

STARTCHAR Q
ENCODING 81
SWIDTH 600 0
DWIDTH 20 0
BBX 20 29 0 -6
BITMAP
000000
000000
000000
000000
01F000
071C00
0C0600
180300
100100
300180
200080
200080
200080
200080
200080
200080
200080
300180
100100
180300
0E0E00
031800
01F000
008000
03F180
061F00
000000
000000
000000
ENDCHAR

STARTCHAR R
ENCODING 82
SWIDTH 600 0
DWIDTH 20 0
BBX 20 29 0 -6
BITMAP
000000
000000
000000
000000
7FF000
081C00
080200
080300
080100
080100
080300
080200
080C00
0FF000
083000
081800
080C00
080600
080200
080300
080100
080180
7F00E0
000000
000000
000000
000000
000000
000000
ENDCHAR

STARTCHAR S
ENCODING 83
SWIDTH 600 0
DWIDTH 20 0
BBX 20 29 0 -6
BITMAP
000000
000000
000000
000000
01F200
071A00
0C0600
080600
080200
080200
080000
0C0000
070000
01E000
003800
000C00
000600
100200
100200
180200
1C0600
171C00
11F000
000000
000000
000000
000000
000000
000000
ENDCHAR

STARTCHAR T
ENCODING 84
SWIDTH 600 0
DWIDTH 20 0
BBX 20 29 0 -6
BITMAP
000000
000000
000000
000000
3FFF80
204080
204080
204080
204080
204080
204080
004000
004000
004000
004000
004000
004000
004000
004000
004000
004000
004000
0FFE00
000000
000000
000000
000000
000000
000000
ENDCHAR

STARTCHAR U
ENCODING 85
SWIDTH 600 0
DWIDTH 20 0
BBX 20 29 0 -6
BITMAP
000000
000000
000000
000000
7F1FC0
100100
100100
100100
100100
100100
100100
100100
100100
100100
100100
100100
100100
100100
180300
080200
0C0600
071C00
01F000
000000
000000
000000
000000
000000
000000
ENDCHAR

STARTCHAR V
ENCODING 86
SWIDTH 600 0
DWIDTH 20 0
BBX 20 29 0 -6
BITMAP
000000
000000
000000
000000
FE0FE0
300180
100100
100100
180300
080200
080200
0C0600
040400
040400
060C00
020800
031800
011000
011000
00A000
00A000
00E000
004000
000000
000000
000000
000000
000000
000000
ENDCHAR

STARTCHAR W
ENCODING 87
SWIDTH 600 0
DWIDTH 20 0
BBX 20 29 0 -6
BITMAP
000000
000000
000000
000000
7E0FC0
200080
200080
200080
200080
30E180
10A100
10A100
111100
111100
111100
111100
131900
120900
1A0B00
0A0A00
0A0A00
0C0600
0C0600
000000
000000
000000
000000
000000
000000
ENDCHAR

STARTCHAR X
ENCODING 88
SWIDTH 600 0
DWIDTH 20 0
BBX 20 29 0 -6
BITMAP
000000
000000
000000
000000
3E0F80
180300
080200
0C0600
040400
020800
011000
01B000
00E000
004000
00E000
011000
020800
060C00
040400
080200
180300
300180
7E0FC0
000000
000000
000000
000000
000000
000000
ENDCHAR

STARTCHAR Y
ENCODING 89
SWIDTH 600 0
DWIDTH 20 0
BBX 20 29 0 -6
BITMAP
000000
000000
000000
000000
3E0F80
180300
0C0600
040400
060C00
020800
011000
01B000
00A000
00E000
004000
004000
004000
004000
004000
004000
004000
004000
07FC00
000000
000000
000000
000000
000000
000000
ENDCHAR

STARTCHAR Z
ENCODING 90
SWIDTH 600 0
DWIDTH 20 0
BBX 20 29 0 -6
BITMAP
000000
000000
000000
000000
0FFE00
080200
080600
080400
080C00
081800
001000
003000
006000
00C000
008000
018000
030100
020100
060100
0C0100
080100
180100
1FFF00
000000
000000
000000
000000
000000
000000
ENDCHAR

STARTCHAR bracketleft
ENCODING 91
SWIDTH 600 0
DWIDTH 20 0
BBX 20 29 0 -6
BITMAP
000000
000000
000000
007C00
004000
004000
004000
004000
004000
004000
004000
004000
004000
004000
004000
004000
004000
004000
004000
004000
004000
004000
004000
004000
004000
004000
007C00
000000
000000
ENDCHAR

STARTCHAR backslash
ENCODING 92
SWIDTH 600 0
DWIDTH 20 0
BBX 20 29 0 -6
BITMAP
000000
080000
0C0000
040000
040000
060000
020000
030000
010000
018000
008000
008000
00C000
004000
006000
002000
002000
003000
001000
001800
000800
000C00
000400
000400
000600
000200
000000
000000
000000
ENDCHAR

STARTCHAR bracketright
ENCODING 93
SWIDTH 600 0
DWIDTH 20 0
BBX 20 29 0 -6
BITMAP
000000
000000
000000
07C000
004000
004000
004000
004000
004000
004000
004000
004000
004000
004000
004000
004000
004000
004000
004000
004000
004000
004000
004000
004000
004000
004000
07C000
000000
000000
ENDCHAR

STARTCHAR asciicircum
ENCODING 94
SWIDTH 600 0
DWIDTH 20 0
BBX 20 29 0 -6
BITMAP
000000
000000
004000
00E000
01B000
011000
031800
060C00
040400
0C0600
080200
000000
000000
000000
000000
000000
000000
000000
000000
000000
000000
000000
000000
000000
000000
000000
000000
000000
000000
ENDCHAR

STARTCHAR underscore
ENCODING 95
SWIDTH 600 0
DWIDTH 20 0
BBX 20 29 0 -6
BITMAP
000000
000000
000000
000000
000000
000000
000000
000000
000000
000000
000000
000000
000000
000000
000000
000000
000000
000000
000000
000000
000000
000000
000000
000000
000000
000000
000000
000000
FFFFE0
ENDCHAR

STARTCHAR quoteleft
ENCODING 96
SWIDTH 600 0
DWIDTH 20 0
BBX 20 29 0 -6
BITMAP
000000
000000
00F000
00F000
007800
007800
003C00
000C00
000E00
000600
000200
000000
000000
000000
000000
000000
000000
000000
000000
000000
000000
000000
000000
000000
000000
000000
000000
000000
000000
ENDCHAR

STARTCHAR a
ENCODING 97
SWIDTH 600 0
DWIDTH 20 0
BBX 20 29 0 -6
BITMAP
000000
000000
000000
000000
000000
000000
000000
000000
000000
03E000
0E3800
000800
000C00
000400
000400
07FC00
1C0C00
300400
200400
200400
200C00
303C00
1FE780
000000
000000
000000
000000
000000
000000
ENDCHAR

STARTCHAR b
ENCODING 98
SWIDTH 600 0
DWIDTH 20 0
BBX 20 29 0 -6
BITMAP
000000
000000
000000
F00000
100000
100000
100000
100000
100000
11F800
170E00
140300
180100
180180
100080
100080
100080
100080
180180
180100
140300
170E00
F1F800
000000
000000
000000
000000
000000
000000
ENDCHAR

STARTCHAR c
ENCODING 99
SWIDTH 600 0
DWIDTH 20 0
BBX 20 29 0 -6
BITMAP
000000
000000
000000
000000
000000
000000
000000
000000
000000
01F100
071F00
0C0300
080100
180100
100000
100000
100000
100000
180000
080180
0C0300
071C00
01F000
000000
000000
000000
000000
000000
000000
ENDCHAR

STARTCHAR d
ENCODING 100
SWIDTH 600 0
DWIDTH 20 0
BBX 20 29 0 -6
BITMAP
000000
000000
000000
000F00
000100
000100
000100
000100
000100
03F100
0E1D00
180500
100300
300300
200100
200100
200100
200100
300300
100300
180500
0E1D00
03F1E0
000000
000000
000000
000000
000000
000000
ENDCHAR

STARTCHAR e
ENCODING 101
SWIDTH 600 0
DWIDTH 20 0
BBX 20 29 0 -6
BITMAP
000000
000000
000000
000000
000000
000000
000000
000000
000000
03F000
0E1C00
180600
100200
300300
200100
3FFF00
200000
200000
300000
100000
180300
0E0E00
03F800
000000
000000
000000
000000
000000
000000
ENDCHAR

STARTCHAR f
ENCODING 102
SWIDTH 600 0
DWIDTH 20 0
BBX 20 29 0 -6
BITMAP
000000
000000
000000
007C00
00C300
008000
018000
010000
010000
1FFE00
010000
010000
010000
010000
010000
010000
010000
010000
010000
010000
010000
010000
1FFE00
000000
000000
000000
000000
000000
000000
ENDCHAR

STARTCHAR g
ENCODING 103
SWIDTH 600 0
DWIDTH 20 0
BBX 20 29 0 -6
BITMAP
000000
000000
000000
000000
000000
000000
000000
000000
000000
03F1E0
0E1D00
180500
100300
300300
200100
200100
200100
200100
300300
100300
180500
0E1D00
03F100
000100
000100
000300
000200
000E00
03F800
ENDCHAR

STARTCHAR h
ENCODING 104
SWIDTH 600 0
DWIDTH 20 0
BBX 20 29 0 -6
BITMAP
000000
000000
000000
780000
080000
080000
080000
080000
080000
08F000
0B9C00
0A0400
0C0600
0C0200
080200
080200
080200
080200
080200
080200
080200
080200
3E0F80
000000
000000
000000
000000
000000
000000
ENDCHAR

STARTCHAR i
ENCODING 105
SWIDTH 600 0
DWIDTH 20 0
BBX 20 29 0 -6
BITMAP
000000
000000
000000
00C000
00C000
00C000
000000
000000
000000
0FC000
004000
004000
004000
004000
004000
004000
004000
004000
004000
004000
004000
004000
1FFF00
000000
000000
000000
000000
000000
000000
ENDCHAR

STARTCHAR j
ENCODING 106
SWIDTH 600 0
DWIDTH 20 0
BBX 20 29 0 -6
BITMAP
000000
000000
000000
001800
001800
001800
000000
000000
000000
0FFC00
000400
000400
000400
000400
000400
000400
000400
000400
000400
000400
000400
000400
000400
000400
000400
000C00
000800
003800
0FE000
ENDCHAR

STARTCHAR k
ENCODING 107
SWIDTH 600 0
DWIDTH 20 0
BBX 20 29 0 -6
BITMAP
000000
000000
000000
3C0000
040000
040000
040000
040000
040000
043F00
040C00
041800
043000
046000
04C000
078000
04C000
046000
043000
041800
040C00
040600
3C0F80
000000
000000
000000
000000
000000
000000
ENDCHAR

STARTCHAR l
ENCODING 108
SWIDTH 600 0
DWIDTH 20 0
BBX 20 29 0 -6
BITMAP
000000
000000
000000
0FC000
004000
004000
004000
004000
004000
004000
004000
004000
004000
004000
004000
004000
004000
004000
004000
004000
004000
004000
1FFF00
000000
000000
000000
000000
000000
000000
ENDCHAR

STARTCHAR m
ENCODING 109
SWIDTH 600 0
DWIDTH 20 0
BBX 20 29 0 -6
BITMAP
000000
000000
000000
000000
000000
000000
000000
000000
000000
E70E00
299300
30E180
306080
204080
204080
204080
204080
204080
204080
204080
204080
204080
F870E0
000000
000000
000000
000000
000000
000000
ENDCHAR

STARTCHAR n
ENCODING 110
SWIDTH 600 0
DWIDTH 20 0
BBX 20 29 0 -6
BITMAP
000000
000000
000000
000000
000000
000000
000000
000000
000000
38F000
0B9C00
0A0400
0C0600
0C0200
080200
080200
080200
080200
080200
080200
080200
080200
3E0F80
000000
000000
000000
000000
000000
000000
ENDCHAR

STARTCHAR o
ENCODING 111
SWIDTH 600 0
DWIDTH 20 0
BBX 20 29 0 -6
BITMAP
000000
000000
000000
000000
000000
000000
000000
000000
000000
03F800
0E0E00
180300
100100
300180
200080
200080
200080
200080
300180
100100
180300
0E0E00
03F800
000000
000000
000000
000000
000000
000000
ENDCHAR

STARTCHAR p
ENCODING 112
SWIDTH 600 0
DWIDTH 20 0
BBX 20 29 0 -6
BITMAP
000000
000000
000000
000000
000000
000000
000000
000000
000000
01F800
F70E00
140300
180100
180180
100080
100080
100080
100080
180180
180100
140300
170E00
11F800
100000
100000
100000
100000
100000
FF0000
ENDCHAR

STARTCHAR q
ENCODING 113
SWIDTH 600 0
DWIDTH 20 0
BBX 20 29 0 -6
BITMAP
000000
000000
000000
000000
000000
000000
000000
000000
000000
03F000
0E1DE0
180700
100300
300300
200100
200100
200100
200100
300300
100300
180700
0E1D00
03F100
000100
000100
000100
000100
000100
001FE0
ENDCHAR

STARTCHAR r
ENCODING 114
SWIDTH 600 0
DWIDTH 20 0
BBX 20 29 0 -6
BITMAP
000000
000000
000000
000000
000000
000000
000000
000000
000000
0F0F80
0138C0
016000
018000
018000
010000
010000
010000
010000
010000
010000
010000
010000
1FFE00
000000
000000
000000
000000
000000
000000
ENDCHAR

STARTCHAR s
ENCODING 115
SWIDTH 600 0
DWIDTH 20 0
BBX 20 29 0 -6
BITMAP
000000
000000
000000
000000
000000
000000
000000
000000
000000
01F200
071E00
0C0600
080200
0C0000
070000
01F000
001C00
000600
100300
100300
180600
1F1C00
11F000
000000
000000
000000
000000
000000
000000
ENDCHAR

STARTCHAR t
ENCODING 116
SWIDTH 600 0
DWIDTH 20 0
BBX 20 29 0 -6
BITMAP
000000
000000
000000
000000
040000
040000
040000
040000
040000
3FFC00
040000
040000
040000
040000
040000
040000
040000
040000
040000
040000
060300
030E00
01F800
000000
000000
000000
000000
000000
000000
ENDCHAR

STARTCHAR u
ENCODING 117
SWIDTH 600 0
DWIDTH 20 0
BBX 20 29 0 -6
BITMAP
000000
000000
000000
000000
000000
000000
000000
000000
000000
781E00
080200
080200
080200
080200
080200
080200
080200
080200
080200
080600
0C0600
061A00
03F380
000000
000000
000000
000000
000000
000000
ENDCHAR

STARTCHAR v
ENCODING 118
SWIDTH 600 0
DWIDTH 20 0
BBX 20 29 0 -6
BITMAP
000000
000000
000000
000000
000000
000000
000000
000000
000000
7E0FC0
180300
080200
080200
0C0600
040400
060C00
020800
020800
031800
011000
01B000
00A000
00E000
000000
000000
000000
000000
000000
000000
ENDCHAR

STARTCHAR w
ENCODING 119
SWIDTH 600 0
DWIDTH 20 0
BBX 20 29 0 -6
BITMAP
000000
000000
000000
000000
000000
000000
000000
000000
000000
7C07C0
300180
100100
100100
10E100
10A100
18A300
09B200
091200
091200
0B1A00
0E0E00
040400
040400
000000
000000
000000
000000
000000
000000
ENDCHAR

STARTCHAR x
ENCODING 120
SWIDTH 600 0
DWIDTH 20 0
BBX 20 29 0 -6
BITMAP
000000
000000
000000
000000
000000
000000
000000
000000
000000
3E0F80
180300
0C0600
060C00
031800
01B000
00E000
00E000
01B000
031800
060C00
0C0600
180300
3E0F80
000000
000000
000000
000000
000000
000000
ENDCHAR

STARTCHAR y
ENCODING 121
SWIDTH 600 0
DWIDTH 20 0
BBX 20 29 0 -6
BITMAP
000000
000000
000000
000000
000000
000000
000000
000000
000000
3E0F80
100100
180300
080200
0C0600
040400
060C00
020800
031800
011000
01B000
00A000
00E000
004000
00C000
008000
008000
018000
010000
3FE000
ENDCHAR

STARTCHAR z
ENCODING 122
SWIDTH 600 0
DWIDTH 20 0
BBX 20 29 0 -6
BITMAP
000000
000000
000000
000000
000000
000000
000000
000000
000000
0FFE00
080600
080C00
081800
003000
006000
004000
00C000
018000
030000
060200
040200
0C0200
0FFE00
000000
000000
000000
000000
000000
000000
ENDCHAR

STARTCHAR braceleft
ENCODING 123
SWIDTH 600 0
DWIDTH 20 0
BBX 20 29 0 -6
BITMAP
000000
000000
001800
003000
006000
004000
004000
004000
004000
004000
004000
004000
004000
00C000
018000
038000
00C000
004000
004000
004000
004000
004000
004000
004000
004000
006000
003800
000000
000000
ENDCHAR

STARTCHAR bar
ENCODING 124
SWIDTH 600 0
DWIDTH 20 0
BBX 20 29 0 -6
BITMAP
000000
000000
004000
004000
004000
004000
004000
004000
004000
004000
004000
004000
004000
004000
004000
004000
004000
004000
004000
004000
004000
004000
004000
004000
004000
004000
004000
000000
000000
ENDCHAR

STARTCHAR braceright
ENCODING 125
SWIDTH 600 0
DWIDTH 20 0
BBX 20 29 0 -6
BITMAP
000000
000000
030000
018000
00C000
004000
004000
004000
004000
004000
004000
004000
004000
006000
003000
003800
006000
004000
004000
004000
004000
004000
004000
004000
004000
00C000
038000
000000
000000
ENDCHAR

STARTCHAR asciitilde
ENCODING 126
SWIDTH 600 0
DWIDTH 20 0
BBX 20 29 0 -6
BITMAP
000000
000000
000000
000000
000000
000000
000000
000000
000000
000000
000000
030000
0F8100
18E300
103600
001C00
000000
000000
000000
000000
000000
000000
000000
000000
000000
000000
000000
000000
000000
ENDCHAR

STARTCHAR cent
ENCODING 162
SWIDTH 600 0
DWIDTH 20 0
BBX 20 29 0 -6
BITMAP
000000
000000
000000
004000
004000
004000
004000
01F800
030E00
060200
0C0200
080000
080000
080000
080000
0C0000
060200
030E00
01F800
004000
004000
004000
004000
000000
000000
000000
000000
000000
000000
ENDCHAR

STARTCHAR sterling
ENCODING 163
SWIDTH 600 0
DWIDTH 20 0
BBX 20 29 0 -6
BITMAP
000000
000000
000000
000000
00F800
030C00
020600
060000
040000
040000
040000
060000
020000
3FE000
020000
020000
020000
020000
020000
060000
040100
0C0300
1FFE00
000000
000000
000000
000000
000000
000000
ENDCHAR

STARTCHAR currency
ENCODING 164
SWIDTH 600 0
DWIDTH 20 0
BBX 20 29 0 -6
BITMAP
000000
000000
000000
000000
000000
000000
000000
180300
0DF600
071C00
040400
0C0600
080200
080200
080200
0C0600
040400
071C00
0DF600
180300
000000
000000
000000
000000
000000
000000
000000
000000
000000
ENDCHAR

STARTCHAR yen
ENCODING 165
SWIDTH 600 0
DWIDTH 20 0
BBX 20 29 0 -6
BITMAP
000000
000000
000000
000000
3E0F80
180300
0C0600
040400
060C00
020800
031800
01B000
00A000
00E000
0FFE00
004000
004000
0FFE00
004000
004000
004000
004000
07FC00
000000
000000
000000
000000
000000
000000
ENDCHAR

STARTCHAR brokenbar
ENCODING 166
SWIDTH 600 0
DWIDTH 20 0
BBX 20 29 0 -6
BITMAP
000000
000000
004000
004000
004000
004000
004000
004000
004000
004000
004000
004000
004000
000000
000000
000000
000000
004000
004000
004000
004000
004000
004000
004000
004000
004000
004000
000000
000000
ENDCHAR

STARTCHAR section
ENCODING 167
SWIDTH 600 0
DWIDTH 20 0
BBX 20 29 0 -6
BITMAP
000000
000000
00FF00
038100
020100
020100
020000
030000
0F8000
18C000
106000
103800
180C00
0E0700
030180
018080
00E080
003080
001F80
000C00
000400
080400
080400
081C00
0FF000
000000
000000
000000
000000
ENDCHAR

STARTCHAR dieresis
ENCODING 168
SWIDTH 600 0
DWIDTH 20 0
BBX 20 29 0 -6
BITMAP
000000
000000
000000
030C00
079E00
030C00
000000
000000
000000
000000
000000
000000
000000
000000
000000
000000
000000
000000
000000
000000
000000
000000
000000
000000
000000
000000
000000
000000
000000
ENDCHAR

STARTCHAR copyright
ENCODING 169
SWIDTH 600 0
DWIDTH 20 0
BBX 20 29 0 -6
BITMAP
000000
000000
000000
000000
01F000
071C00
1C0700
300180
21E880
6318C0
460840
CC0860
880020
880020
880020
8C0020
C60C60
431840
61F0C0
300180
180300
0F1E00
01F000
000000
000000
000000
000000
000000
000000
ENDCHAR

STARTCHAR multiply
ENCODING 170
SWIDTH 600 0
DWIDTH 20 0
BBX 20 29 0 -6
BITMAP
000000
000000
000000
000000
000000
000000
000000
000000
100100
180300
0C0600
060C00
031800
01B000
00E000
00E000
01B000
031800
060C00
0C0600
180300
100100
000000
000000
000000
000000
000000
000000
000000
ENDCHAR

STARTCHAR guillemotleft
ENCODING 171
SWIDTH 600 0
DWIDTH 20 0
BBX 20 29 0 -6
BITMAP
000000
000000
000000
000000
000000
000000
000000
000000
000000
0060C0
00C180
018300
030600
060C00
0C1800
183000
387000
183000
0C1800
060C00
030600
018300
00C180
000000
000000
000000
000000
000000
000000
ENDCHAR

STARTCHAR logicalnot
ENCODING 172
SWIDTH 600 0
DWIDTH 20 0
BBX 20 29 0 -6
BITMAP
000000
000000
000000
000000
000000
000000
000000
000000
000000
000000
000000
1FFF80
000080
000080
000080
000080
000080
000000
000000
000000
000000
000000
000000
000000
000000
000000
000000
000000
000000
ENDCHAR

STARTCHAR hyphen
ENCODING 173
SWIDTH 600 0
DWIDTH 20 0
BBX 20 29 0 -6
BITMAP
000000
000000
000000
000000
000000
000000
000000
000000
000000
000000
000000
000000
000000
3FFF80
000000
000000
000000
000000
000000
000000
000000
000000
000000
000000
000000
000000
000000
000000
000000
ENDCHAR

STARTCHAR registered
ENCODING 174
SWIDTH 600 0
DWIDTH 20 0
BBX 20 29 0 -6
BITMAP
000000
000000
000000
000000
03F800
0E0E00
180300
300180
67E0C0
423040
C21860
820820
820820
821820
823020
83E020
C23060
421840
670CC0
300180
180300
0E0E00
03F800
000000
000000
000000
000000
000000
000000
ENDCHAR

STARTCHAR macron
ENCODING 175
SWIDTH 600 0
DWIDTH 20 0
BBX 20 29 0 -6
BITMAP
000000
000000
000000
000000
07FC00
07FC00
000000
000000
000000
000000
000000
000000
000000
000000
000000
000000
000000
000000
000000
000000
000000
000000
000000
000000
000000
000000
000000
000000
000000
ENDCHAR

STARTCHAR degree
ENCODING 176
SWIDTH 600 0
DWIDTH 20 0
BBX 20 29 0 -6
BITMAP
000000
000000
01F000
031800
020800
060C00
040400
040400
060C00
020800
031800
01F000
000000
000000
000000
000000
000000
000000
000000
000000
000000
000000
000000
000000
000000
000000
000000
000000
000000
ENDCHAR

STARTCHAR plusminus
ENCODING 177
SWIDTH 600 0
DWIDTH 20 0
BBX 20 29 0 -6
BITMAP
000000
000000
000000
000000
000000
000000
004000
004000
004000
004000
004000
004000
3FFF80
004000
004000
004000
004000
004000
004000
000000
000000
3FFF80
000000
000000
000000
000000
000000
000000
000000
ENDCHAR

STARTCHAR twosuperior
ENCODING 178
SWIDTH 600 0
DWIDTH 20 0
BBX 20 29 0 -6
BITMAP
000000
000000
01E000
033000
021800
060800
001800
001000
003000
006000
00C000
008000
018000
030000
060800
07F800
000000
000000
000000
000000
000000
000000
000000
000000
000000
000000
000000
000000
000000
ENDCHAR

STARTCHAR threesuperior
ENCODING 179
SWIDTH 600 0
DWIDTH 20 0
BBX 20 29 0 -6
BITMAP
000000
000000
00F000
019800
030C00
000400
000400
001800
007000
001800
000C00
000400
000400
030C00
019800
00F000
000000
000000
000000
000000
000000
000000
000000
000000
000000
000000
000000
000000
000000
ENDCHAR

STARTCHAR acute
ENCODING 180
SWIDTH 600 0
DWIDTH 20 0
BBX 20 29 0 -6
BITMAP
000000
000600
000C00
001800
003000
006000
000000
000000
000000
000000
000000
000000
000000
000000
000000
000000
000000
000000
000000
000000
000000
000000
000000
000000
000000
000000
000000
000000
000000
ENDCHAR

STARTCHAR mu
ENCODING 181
SWIDTH 600 0
DWIDTH 20 0
BBX 20 29 0 -6
BITMAP
000000
000000
000000
000000
000000
000000
000000
000000
000000
781E00
080200
080200
080200
080200
080200
080200
080200
080200
080200
0C0600
0C0E00
0E1A00
0BF380
080000
080000
080000
080000
080000
080000
ENDCHAR

STARTCHAR paragraph
ENCODING 182
SWIDTH 600 0
DWIDTH 20 0
BBX 20 29 0 -6
BITMAP
000000
000000
03FF80
0E4400
1C4400
184400
384400
304400
304400
384400
184400
1C4400
0F4400
03C400
004400
004400
004400
004400
004400
004400
004400
004400
004400
004400
07EF80
000000
000000
000000
000000
ENDCHAR

STARTCHAR periodcentered
ENCODING 183
SWIDTH 600 0
DWIDTH 20 0
BBX 20 29 0 -6
BITMAP
000000
000000
000000
000000
000000
000000
000000
000000
000000
000000
000000
000000
00E000
01F000
01F000
00E000
000000
000000
000000
000000
000000
000000
000000
000000
000000
000000
000000
000000
000000
ENDCHAR

STARTCHAR cedilla
ENCODING 184
SWIDTH 600 0
DWIDTH 20 0
BBX 20 29 0 -6
BITMAP
000000
000000
000000
000000
000000
000000
000000
000000
000000
000000
000000
000000
000000
000000
000000
000000
000000
000000
000000
000000
000000
000000
000000
004000
004000
006000
013000
01E000
000000
ENDCHAR

STARTCHAR onesuperior
ENCODING 185
SWIDTH 600 0
DWIDTH 20 0
BBX 20 29 0 -6
BITMAP
000000
000000
01C000
034000
004000
004000
004000
004000
004000
004000
004000
004000
004000
004000
004000
03F800
000000
000000
000000
000000
000000
000000
000000
000000
000000
000000
000000
000000
000000
ENDCHAR

STARTCHAR divide
ENCODING 186
SWIDTH 600 0
DWIDTH 20 0
BBX 20 29 0 -6
BITMAP
000000
000000
000000
000000
000000
000000
00C000
01E000
00C000
000000
000000
000000
000000
000000
3FFF00
000000
000000
000000
000000
00C000
01E000
00C000
000000
000000
000000
000000
000000
000000
000000
ENDCHAR

STARTCHAR guillemotright
ENCODING 187
SWIDTH 600 0
DWIDTH 20 0
BBX 20 29 0 -6
BITMAP
000000
000000
000000
000000
000000
000000
000000
000000
000000
306000
183000
0C1800
060C00
030600
018300
00C180
00E1C0
00C180
018300
030600
060C00
0C1800
183000
000000
000000
000000
000000
000000
000000
ENDCHAR

STARTCHAR onequarter
ENCODING 188
SWIDTH 600 0
DWIDTH 20 0
BBX 20 29 0 -6
BITMAP
000000
000000
180060
780040
0800C0
080180
080100
080300
080600
080400
080C00
081800
081180
083380
7F6280
004680
00CC80
018880
011880
031FC0
060080
040080
0C03C0
000000
000000
000000
000000
000000
000000
ENDCHAR

STARTCHAR onehalf
ENCODING 189
SWIDTH 600 0
DWIDTH 20 0
BBX 20 29 0 -6
BITMAP
000000
000000
180040
7800C0
080180
080300
080200
080600
080C00
080800
081800
083000
0823C0
086660
7ECC20
018060
010040
0300C0
060380
040600
0C0C00
181800
301FE0
000000
000000
000000
000000
000000
000000
ENDCHAR

STARTCHAR threequarters
ENCODING 190
SWIDTH 600 0
DWIDTH 20 0
BBX 20 29 0 -6
BITMAP
000000
000000
3C0000
660060
0300C0
030180
060300
1C0600
060C00
030800
011800
013000
C32180
666380
3CC280
018680
010C80
030880
061880
0C1FC0
180080
300080
0003C0
000000
000000
000000
000000
000000
000000
ENDCHAR

STARTCHAR dblunderscore
ENCODING 223
SWIDTH 600 0
DWIDTH 20 0
BBX 20 29 0 -6
BITMAP
000000
000000
000000
000000
000000
000000
000000
000000
000000
000000
000000
000000
000000
000000
000000
000000
000000
000000
000000
000000
000000
000000
000000
FFFFF0
000000
000000
000000
FFFFF0
000000
ENDCHAR

STARTCHAR aleph
ENCODING 224
SWIDTH 600 0
DWIDTH 20 0
BBX 20 29 0 -6
BITMAP
000000
000000
000000
000000
000000
000000
000000
181F00
0C0100
060100
030100
030100
058100
08C100
086200
103C00
101000
101800
100C00
100600
100300
100180
1F0080
000000
000000
000000
000000
000000
000000
ENDCHAR

STARTCHAR beth
ENCODING 225
SWIDTH 600 0
DWIDTH 20 0
BBX 20 29 0 -6
BITMAP
000000
000000
000000
000000
000000
000000
000000
0FF000
001C00
000400
000600
000200
000200
000200
000200
000200
000200
000200
000200
000200
000200
000200
3FFF80
000000
000000
000000
000000
000000
000000
ENDCHAR

STARTCHAR gimmel
ENCODING 226
SWIDTH 600 0
DWIDTH 20 0
BBX 20 29 0 -6
BITMAP
000000
000000
000000
000000
000000
000000
000000
00FE00
000100
000100
000100
000100
000100
000100
000100
000300
000300
000500
000D00
001900
003100
00E100
078100
000000
000000
000000
000000
000000
000000
ENDCHAR

STARTCHAR daleth
ENCODING 227
SWIDTH 600 0
DWIDTH 20 0
BBX 20 29 0 -6
BITMAP
000000
000000
000000
000000
000000
000000
000000
0FFFC0
000200
000200
000200
000200
000200
000200
000200
000200
000200
000200
000200
000200
000200
000200
000200
000000
000000
000000
000000
000000
000000
ENDCHAR

STARTCHAR he
ENCODING 228
SWIDTH 600 0
DWIDTH 20 0
BBX 20 29 0 -6
BITMAP
000000
000000
000000
000000
000000
000000
000000
1FFE00
000300
000100
000100
000100
080100
080100
080100
080100
080100
080100
080100
080100
080100
080100
080100
000000
000000
000000
000000
000000
000000
ENDCHAR

STARTCHAR waw
ENCODING 229
SWIDTH 600 0
DWIDTH 20 0
BBX 20 29 0 -6
BITMAP
000000
000000
000000
000000
000000
000000
000000
0FF000
001000
001000
001000
001000
001000
001000
001000
001000
001000
001000
001000
001000
001000
001000
001000
000000
000000
000000
000000
000000
000000
ENDCHAR

STARTCHAR zayin
ENCODING 230
SWIDTH 600 0
DWIDTH 20 0
BBX 20 29 0 -6
BITMAP
000000
000000
000000
000000
000000
000000
000000
1FFC00
004000
004000
004000
004000
004000
004000
004000
004000
004000
004000
004000
004000
004000
004000
004000
000000
000000
000000
000000
000000
000000
ENDCHAR

STARTCHAR het
ENCODING 231
SWIDTH 600 0
DWIDTH 20 0
BBX 20 29 0 -6
BITMAP
000000
000000
000000
000000
000000
000000
000000
7FFFC0
080200
080200
080200
080200
080200
080200
080200
080200
080200
080200
080200
080200
080200
080200
080200
000000
000000
000000
000000
000000
000000
ENDCHAR

STARTCHAR teth
ENCODING 232
SWIDTH 600 0
DWIDTH 20 0
BBX 20 29 0 -6
BITMAP
000000
000000
000000
000000
000000
000000
000000
781F00
082080
084040
084040
084040
084040
080040
080040
080040
080040
080040
080040
080040
040080
060180
01FE00
000000
000000
000000
000000
000000
000000
ENDCHAR

STARTCHAR yod
ENCODING 233
SWIDTH 600 0
DWIDTH 20 0
BBX 20 29 0 -6
BITMAP
000000
000000
000000
000000
000000
000000
000000
07F800
000C00
000400
000400
000400
000400
000400
000400
000400
000400
000000
000000
000000
000000
000000
000000
000000
000000
000000
000000
000000
000000
ENDCHAR

STARTCHAR kaphfinal
ENCODING 234
SWIDTH 600 0
DWIDTH 20 0
BBX 20 29 0 -6
BITMAP
000000
000000
000000
000000
000000
000000
000000
1FFFE0
000100
000100
000100
000100
000100
000100
000100
000100
000100
000100
000100
000100
000100
000100
000100
000100
000100
000100
000100
0001E0
000000
ENDCHAR

STARTCHAR kaph
ENCODING 235
SWIDTH 600 0
DWIDTH 20 0
BBX 20 29 0 -6
BITMAP
000000
000000
000000
000000
000000
000000
000000
1FF800
000600
000200
000100
000100
000100
000100
000100
000100
000100
000100
000100
000100
000200
000600
1FF800
000000
000000
000000
000000
000000
000000
ENDCHAR

STARTCHAR lamed
ENCODING 236
SWIDTH 600 0
DWIDTH 20 0
BBX 20 29 0 -6
BITMAP
000000
000000
000000
040000
040000
040000
040000
07FF80
0000C0
000040
000040
000040
000040
0000C0
000180
000300
000600
000C00
001800
003000
002000
002000
003E00
000000
000000
000000
000000
000000
000000
ENDCHAR

STARTCHAR memfinal
ENCODING 237
SWIDTH 600 0
DWIDTH 20 0
BBX 20 29 0 -6
BITMAP
000000
000000
000000
000000
000000
000000
000000
1FFF80
0400C0
040040
040040
040040
040040
040040
040040
040040
040040
040040
040040
040040
040040
040040
07FFC0
000000
000000
000000
000000
000000
000000
ENDCHAR

STARTCHAR mem
ENCODING 238
SWIDTH 600 0
DWIDTH 20 0
BBX 20 29 0 -6
BITMAP
000000
000000
000000
000000
000000
000000
000000
70F800
130600
140200
140100
180100
180100
100100
100100
100100
100100
100100
100100
100100
100100
100100
10FF00
000000
000000
000000
000000
000000
000000
ENDCHAR

STARTCHAR nunfinal
ENCODING 239
SWIDTH 600 0
DWIDTH 20 0
BBX 20 29 0 -6
BITMAP
000000
000000
000000
000000
000000
000000
000000
01F800
000800
000800
000800
000800
000800
000800
000800
000800
000800
000800
000800
000800
000800
000800
000800
000800
000800
000800
000800
000F80
000000
ENDCHAR

STARTCHAR nun
ENCODING 240
SWIDTH 600 0
DWIDTH 20 0
BBX 20 29 0 -6
BITMAP
000000
000000
000000
000000
000000
000000
000000
00FE00
000300
000100
000100
000100
000100
000100
000100
000100
000100
000100
000100
000100
000100
000100
03FF00
000000
000000
000000
000000
000000
000000
ENDCHAR

STARTCHAR samekh
ENCODING 241
SWIDTH 600 0
DWIDTH 20 0
BBX 20 29 0 -6
BITMAP
000000
000000
000000
000000
000000
000000
000000
3FFF80
0400C0
040040
040040
040040
040040
040040
040040
040040
040040
040040
040040
020080
020080
018300
007C00
000000
000000
000000
000000
000000
000000
ENDCHAR

STARTCHAR ayin
ENCODING 242
SWIDTH 600 0
DWIDTH 20 0
BBX 20 29 0 -6
BITMAP
000000
000000
000000
000000
000000
000000
000000
000000
1E0F00
020100
020100
020100
020100
020100
020100
020100
020100
020100
020100
020200
020200
020C00
1FF000
000000
000000
000000
000000
000000
000000
ENDCHAR

STARTCHAR pefinal
ENCODING 243
SWIDTH 600 0
DWIDTH 20 0
BBX 20 29 0 -6
BITMAP
000000
000000
000000
000000
000000
000000
000000
000000
0FFE00
080300
080100
080100
080100
080100
080100
080100
080100
0F8100
000100
000100
000100
000100
000100
000100
000100
000100
000100
0001F0
000000
ENDCHAR

STARTCHAR pe
ENCODING 244
SWIDTH 600 0
DWIDTH 20 0
BBX 20 29 0 -6
BITMAP
000000
000000
000000
000000
000000
000000
000000
000000
1FFC00
100200
100100
100100
100100
100100
100100
100100
1F0100
000100
000100
000100
000100
000200
1FFC00
000000
000000
000000
000000
000000
000000
ENDCHAR

STARTCHAR zadikfinal
ENCODING 245
SWIDTH 600 0
DWIDTH 20 0
BBX 20 29 0 -6
BITMAP
000000
000000
000000
000000
000000
000000
000000
000000
3E0F80
020080
020080
020080
020080
020100
020100
020200
020C00
03F000
020000
020000
020000
020000
020000
020000
020000
020000
020000
03C000
000000
ENDCHAR

STARTCHAR zadik
ENCODING 246
SWIDTH 600 0
DWIDTH 20 0
BBX 20 29 0 -6
BITMAP
000000
000000
000000
000000
000000
000000
000000
000000
1F07C0
010040
010040
010040
010040
010080
008180
004E00
003000
001800
000600
000300
000180
000080
1FFF80
000000
000000
000000
000000
000000
000000
ENDCHAR

STARTCHAR kof
ENCODING 247
SWIDTH 600 0
DWIDTH 20 0
BBX 20 29 0 -6
BITMAP
000000
000000
000000
000000
000000
000000
000000
000000
3FFF80
0000C0
000040
000040
080040
0800C0
080180
080300
080600
080C00
081800
083000
086000
084000
087E00
080000
080000
080000
080000
080000
000000
ENDCHAR

STARTCHAR resh
ENCODING 248
SWIDTH 600 0
DWIDTH 20 0
BBX 20 29 0 -6
BITMAP
000000
000000
000000
000000
000000
000000
000000
000000
1FFE00
000300
000100
000100
000100
000100
000100
000100
000100
000100
000100
000100
000100
000100
000100
000000
000000
000000
000000
000000
000000
ENDCHAR

STARTCHAR shin
ENCODING 249
SWIDTH 600 0
DWIDTH 20 0
BBX 20 29 0 -6
BITMAP
000000
000000
000000
000000
000000
000000
000000
000000
1C21C0
102040
102040
102040
102040
102040
102040
102040
102040
102040
102040
102040
082080
0C2180
03FE00
000000
000000
000000
000000
000000
000000
ENDCHAR

STARTCHAR taf
ENCODING 250
SWIDTH 600 0
DWIDTH 20 0
BBX 20 29 0 -6
BITMAP
000000
000000
000000
000000
000000
000000
000000
000000
0FFF80
0100C0
010040
010040
010040
010040
010040
010040
010040
010040
010040
010040
010040
010040
1F0040
000000
000000
000000
000000
000000
000000
ENDCHAR
ENDFONT
